<svg width="200" height="200" viewBox="0 0 200 200" fill="none" xmlns="http://www.w3.org/2000/svg">
<path d="M100 0C44.77 0 0 44.77 0 100C0 112.72 2.61994 125.61 7.18994 137.19L15 153.12C19.95 163.41 18.2101 173.11 11.5601 185C7.89006 191.58 12.47 199.51 20 199.69C30.17 199.92 47.07 196.68 60 191.88C71.94 197.39 86.68 200 100 200C155.23 200 200 155.23 200 100C200 44.77 155.23 0 100 0ZM100 20C144.18 20 180 55.82 180 100C180 144.18 144.18 180 100 180C88.5 180 74.05 177.04 65 172.19C62.32 170.75 59.04 170.37 56.25 171.56C49.87 174.29 43.4299 176.34 35.9399 177.81C38.9399 167.3 38.0501 155.27 32.8101 144.38L25.3101 129.06C21.9801 120.54 20 110.2 20 100C20 55.82 55.82 20 100 20ZM60 90C54.48 90 50 94.48 50 100C50 105.52 54.48 110 60 110C65.52 110 70 105.52 70 100C70 94.48 65.52 90 60 90ZM100 90C94.48 90 90 94.48 90 100C90 105.52 94.48 110 100 110C105.52 110 110 105.52 110 100C110 94.48 105.52 90 100 90ZM140 90C134.48 90 130 94.48 130 100C130 105.52 134.48 110 140 110C145.52 110 150 105.52 150 100C150 94.48 145.52 90 140 90Z" fill="#2A343D"/>
</svg>
