<svg width="200" height="160" viewBox="0 0 200 160" fill="none" xmlns="http://www.w3.org/2000/svg">
<path d="M40 0C17.91 0 0 17.91 0 39.9999V120C0 142.09 17.91 160 40 160H160C182.09 160 200 142.09 200 120V39.9999C200 17.91 182.09 0 160 0H40ZM40 20H160C170.08 20 178.41 27.4 179.79 37.1C170.21 46.03 155.97 56.9899 146.56 63.7498C124.91 79.2998 105.86 89.9998 100 89.9998C94.14 89.9998 75.0899 79.3098 53.4399 63.7498C44.0299 56.9899 34.7801 49.6799 27.8101 43.7499C24.8401 41.2199 22.6399 39.1799 20.9399 37.4999C22.3199 27.7999 29.92 20 40 20ZM20.1001 63.5399C45.4801 84.0698 82.67 109.88 100 110C111.29 110.08 130.6 99.2998 150.3 85.6898C160.49 78.6398 171.83 70.2698 180.01 63.3998L180 120C180 131.05 171.05 140 160 140H40C28.95 140 20 131.05 20 120L20.1001 63.5399Z" fill="#2A343D"/>
</svg>
