<svg width="200" height="190" viewBox="0 0 200 190" fill="none" xmlns="http://www.w3.org/2000/svg">
<path d="M100 0C44.77 0 0 44.77 0 100V140C0 145.52 4.48 150 10 150C12.22 150 15.55 150 20 150V160C20 176.57 33.43 190 50 190C66.57 190 80 176.57 80 160V120C80 103.43 66.57 90 50 90C33.43 90 20 103.43 20 120V100C20 55.82 55.82 20 100 20C144.18 20 180 55.82 180 100V120C180 103.43 166.57 90 150 90C133.43 90 120 103.43 120 120V160C120 176.57 133.43 190 150 190C166.57 190 180 176.57 180 160V150C184.45 150 187.78 150 190 150C195.52 150 200 145.52 200 140V100C200 44.77 155.23 0 100 0ZM50 110C55.52 110 60 114.48 60 120V160C60 165.52 55.52 170 50 170C44.48 170 40 165.52 40 160V120C40 114.48 44.48 110 50 110ZM150 110C155.52 110 160 114.48 160 120V140V160C160 165.52 155.52 170 150 170C144.48 170 140 165.52 140 160V120C140 114.48 144.48 110 150 110Z" fill="#2A343D"/>
</svg>
